<svg width="757" height="141" viewBox="0 0 757 141" fill="none" xmlns="http://www.w3.org/2000/svg">
<path d="M184.912 55.1457V3.33095H193.795V55.1457H184.912ZM238.418 55.886C233.779 55.886 230.325 54.8497 228.055 52.7771C225.834 50.7045 224.724 47.6696 224.724 43.6725V25.1672H215.99V18.1352H222.059C223.194 18.1352 224.058 17.8391 224.65 17.2469C225.242 16.6054 225.538 15.7172 225.538 14.5822V9.25265H232.57L232.496 18.1352H247.3V25.1672H232.496V41.8219C232.496 44.1906 233.088 45.9178 234.273 47.0034C235.506 48.0891 237.431 48.6319 240.046 48.6319C242.07 48.6319 244.488 48.3358 247.3 47.7436V54.7756C245.919 55.0717 244.389 55.3185 242.711 55.5159C241.083 55.7626 239.652 55.886 238.418 55.886ZM267.039 55.886C264.078 55.886 261.487 55.1951 259.266 53.8134C257.095 52.3823 255.417 50.359 254.233 47.7436C253.049 45.1282 252.457 42.0687 252.457 38.565V18.1352H260.303L260.377 37.3807C260.377 40.835 261.29 43.5738 263.116 45.597C264.991 47.6203 267.483 48.6319 270.592 48.6319C272.516 48.6319 274.268 48.1384 275.847 47.1515C277.426 46.1645 278.66 44.8321 279.548 43.1543C280.486 41.4272 280.955 39.5026 280.955 37.3807V18.1352H288.727V55.1457H280.955V43.0063C280.116 46.9047 278.438 50.0383 275.921 52.407C273.454 54.7263 270.493 55.886 267.039 55.886ZM299.101 55.1457V18.1352H306.874V30.2006C307.663 26.5489 309.193 23.514 311.463 21.096C313.782 18.6287 316.644 17.395 320.049 17.395C322.566 17.395 324.663 17.9378 326.341 19.0234C328.068 20.1091 329.351 21.6882 330.19 23.7608C331.029 25.784 331.449 28.2761 331.449 31.2369V34.1978H323.676V32.7173C323.676 30.1513 323.035 28.1774 321.752 26.7957C320.469 25.4139 318.668 24.7231 316.348 24.7231C314.572 24.7231 312.968 25.2165 311.537 26.2035C310.106 27.1904 308.971 28.5475 308.132 30.2746C307.293 32.0018 306.874 33.9017 306.874 35.9743V55.1457H299.101ZM335.32 55.1457V18.1352H343.092V30.2746C343.931 26.3762 345.584 23.2673 348.051 20.948C350.568 18.5793 353.554 17.395 357.008 17.395C359.969 17.395 362.535 18.1105 364.706 19.5416C366.927 20.9233 368.629 22.9219 369.814 25.5373C370.998 28.1034 371.59 31.1382 371.59 34.6419V55.1457H363.744V35.8262C363.744 32.4213 362.806 29.7071 360.931 27.6839C359.105 25.6607 356.613 24.649 353.455 24.649C351.53 24.649 349.778 25.1425 348.199 26.1295C346.62 27.1164 345.362 28.4735 344.424 30.2006C343.536 31.8784 343.092 33.7536 343.092 35.8262V55.1457H335.32ZM1.03624 129.167V92.1563H8.80846V129.167H1.03624ZM4.58926 87.3449L-5.35999e-05 74.0211H9.9928L5.32947 87.3449H4.58926ZM19.183 129.167V92.1563H26.9552V104.296C27.7941 100.397 29.4472 97.2884 31.9146 94.9691C34.4313 92.6004 37.4169 91.4161 40.8712 91.4161C43.832 91.4161 46.3981 92.1316 48.5694 93.5627C50.79 94.9444 52.4925 96.943 53.6768 99.5584C54.8612 102.124 55.4533 105.159 55.4533 108.663V129.167H47.6071V109.847C47.6071 106.442 46.6695 103.728 44.7943 101.705C42.9684 99.6818 40.4764 98.6702 37.3182 98.6702C35.3936 98.6702 33.6418 99.1636 32.0627 100.151C30.4835 101.138 29.2252 102.495 28.2876 104.222C27.3993 105.9 26.9552 107.775 26.9552 109.847V129.167H19.183ZM81.2503 129.907C76.6116 129.907 73.1573 128.871 70.8873 126.798C68.6667 124.726 67.5564 121.691 67.5564 117.694V99.1883H58.8219V92.1563H64.8916C66.0266 92.1563 66.8902 91.8602 67.4824 91.2681C68.0745 90.6265 68.3706 89.7383 68.3706 88.6033V83.2738H75.4026L75.3286 92.1563H90.1328V99.1883H75.3286V115.843C75.3286 118.212 75.9208 119.939 77.1051 121.025C78.3388 122.11 80.2633 122.653 82.8787 122.653C84.902 122.653 87.32 122.357 90.1328 121.765V128.797C88.7511 129.093 87.2213 129.34 85.5435 129.537C83.915 129.784 82.484 129.907 81.2503 129.907ZM112.102 129.907C108.352 129.907 104.947 129.068 101.887 127.39C98.8276 125.713 96.4342 123.418 94.7071 120.506C92.9799 117.546 92.1164 114.264 92.1164 110.662C92.1164 107.01 92.9799 103.728 94.7071 100.817C96.4342 97.9053 98.8276 95.6106 101.887 93.9328C104.947 92.255 108.352 91.4161 112.102 91.4161C115.852 91.4161 119.233 92.255 122.243 93.9328C125.302 95.6106 127.696 97.93 129.423 100.891C131.2 103.802 132.088 107.059 132.088 110.662C132.088 114.264 131.2 117.546 129.423 120.506C127.696 123.418 125.302 125.713 122.243 127.39C119.233 129.068 115.852 129.907 112.102 129.907ZM112.102 122.653C114.323 122.653 116.346 122.135 118.172 121.099C119.998 120.013 121.429 118.557 122.465 116.731C123.551 114.905 124.093 112.882 124.093 110.662C124.093 108.441 123.551 106.418 122.465 104.592C121.429 102.717 119.998 101.261 118.172 100.225C116.346 99.139 114.323 98.5961 112.102 98.5961C109.881 98.5961 107.834 99.139 105.958 100.225C104.132 101.261 102.677 102.717 101.591 104.592C100.555 106.418 100.037 108.441 100.037 110.662C100.037 112.882 100.555 114.905 101.591 116.731C102.677 118.557 104.132 120.013 105.958 121.099C107.834 122.135 109.881 122.653 112.102 122.653ZM427.678 129.907C423.039 129.907 419.585 128.871 417.315 126.798C415.094 124.726 413.984 121.691 413.984 117.694V99.1883H405.249V92.1563H411.319C412.454 92.1563 413.318 91.8602 413.91 91.2681C414.502 90.6265 414.798 89.7383 414.798 88.6033V83.2738H421.83L421.756 92.1563H436.56V99.1883H421.756V115.843C421.756 118.212 422.348 119.939 423.533 121.025C424.766 122.11 426.691 122.653 429.306 122.653C431.33 122.653 433.748 122.357 436.56 121.765V128.797C435.179 129.093 433.649 129.34 431.971 129.537C430.343 129.784 428.912 129.907 427.678 129.907ZM443.179 129.167V76.6119H450.952V104.296C451.791 100.397 453.444 97.2884 455.911 94.9691C458.428 92.6004 461.413 91.4161 464.868 91.4161C467.829 91.4161 470.395 92.1316 472.566 93.5627C474.786 94.9444 476.489 96.943 477.673 99.5584C478.858 102.124 479.45 105.159 479.45 108.663V129.167H471.604V109.847C471.604 106.442 470.666 103.728 468.791 101.705C466.965 99.6818 464.473 98.6702 461.315 98.6702C459.39 98.6702 457.638 99.1636 456.059 100.151C454.48 101.138 453.222 102.495 452.284 104.222C451.396 105.9 450.952 107.775 450.952 109.847V129.167H443.179ZM496.708 130.055C493.254 130.055 490.515 129.241 488.492 127.612C486.469 125.935 485.457 123.64 485.457 120.728C485.457 117.866 486.395 115.646 488.27 114.067C490.194 112.487 492.464 111.402 495.08 110.81C497.695 110.168 500.656 109.724 503.962 109.477C506.775 109.28 508.922 108.934 510.402 108.441C511.932 107.947 512.697 107.035 512.697 105.702C512.697 103.235 511.858 101.286 510.18 99.8545C508.502 98.4234 506.405 97.7079 503.888 97.7079C501.174 97.7079 498.929 98.4728 497.152 100.003C495.425 101.483 494.389 103.556 494.044 106.22H486.789C487.036 103.111 487.924 100.447 489.454 98.226C491.033 96.0054 493.081 94.3276 495.598 93.1926C498.164 92.0083 500.977 91.4161 504.036 91.4161C507.145 91.4161 509.884 92.0083 512.253 93.1926C514.671 94.3769 516.546 96.1041 517.878 98.3741C519.211 100.644 519.877 103.309 519.877 106.368V122.283H524.614V129.167H512.771V116.583C511.784 120.531 509.884 123.763 507.071 126.28C504.258 128.797 500.804 130.055 496.708 130.055ZM500.335 123.911C502.605 123.911 504.678 123.344 506.553 122.209C508.478 121.025 509.983 119.495 511.068 117.62C512.154 115.695 512.697 113.622 512.697 111.402L512.771 108.737C512.129 109.329 511.266 109.773 510.18 110.069C509.144 110.316 507.713 110.538 505.887 110.736C505.788 110.736 505.665 110.76 505.517 110.81C505.418 110.81 505.319 110.81 505.221 110.81C501.224 111.155 498.238 111.895 496.264 113.03C494.34 114.165 493.377 115.843 493.377 118.064C493.377 119.988 493.994 121.444 495.228 122.431C496.511 123.418 498.213 123.911 500.335 123.911ZM547.465 129.907C542.826 129.907 539.372 128.871 537.102 126.798C534.881 124.726 533.771 121.691 533.771 117.694V99.1883H525.036V92.1563H531.106C532.241 92.1563 533.105 91.8602 533.697 91.2681C534.289 90.6265 534.585 89.7383 534.585 88.6033V83.2738H541.617L541.543 92.1563H556.347V99.1883H541.543V115.843C541.543 118.212 542.135 119.939 543.32 121.025C544.553 122.11 546.478 122.653 549.093 122.653C551.117 122.653 553.535 122.357 556.347 121.765V128.797C554.966 129.093 553.436 129.34 551.758 129.537C550.13 129.784 548.699 129.907 547.465 129.907ZM593.315 130.129C587.936 130.129 583.47 128.895 579.917 126.428C576.414 123.961 574.44 120.457 573.996 115.917H582.064C582.459 118.483 583.668 120.432 585.691 121.765C587.714 123.048 590.157 123.689 593.019 123.689C594.499 123.689 595.931 123.492 597.312 123.097C598.743 122.653 599.928 121.987 600.865 121.099C601.803 120.161 602.272 119.001 602.272 117.62C602.272 116.287 601.877 115.226 601.087 114.437C600.347 113.647 599.262 113.055 597.83 112.66C596.449 112.216 594.549 111.797 592.131 111.402C591.835 111.352 591.514 111.303 591.169 111.254C590.872 111.204 590.552 111.155 590.206 111.106C586.851 110.662 584.112 110.119 581.99 109.477C579.868 108.836 578.215 107.923 577.03 106.738C575.895 105.554 575.328 103.975 575.328 102.001C575.328 99.6818 576.044 97.7079 577.475 96.0794C578.906 94.451 580.83 93.242 583.248 92.4524C585.716 91.6135 588.454 91.194 591.465 91.194C596.695 91.194 600.939 92.4277 604.196 94.8951C607.453 97.3625 609.254 100.866 609.6 105.406H601.902C601.655 102.84 600.594 100.915 598.719 99.6324C596.843 98.3494 594.573 97.7079 591.909 97.7079C589.589 97.7079 587.541 98.2507 585.765 99.3364C583.988 100.373 583.1 101.927 583.1 104C583.1 105.135 583.446 106.097 584.137 106.887C584.877 107.676 585.938 108.318 587.319 108.811C588.701 109.255 590.453 109.65 592.575 109.995C592.97 110.045 593.34 110.094 593.685 110.143C594.031 110.193 594.401 110.242 594.796 110.291C594.993 110.341 595.166 110.366 595.314 110.366C595.511 110.366 595.708 110.39 595.906 110.44C599.015 110.884 601.556 111.451 603.53 112.142C605.553 112.833 607.083 113.795 608.119 115.029C609.205 116.213 609.748 117.768 609.748 119.692C609.748 121.962 608.983 123.887 607.453 125.466C605.973 126.996 603.974 128.155 601.457 128.945C598.99 129.734 596.276 130.129 593.315 130.129ZM632.916 129.907C628.277 129.907 624.823 128.871 622.553 126.798C620.332 124.726 619.222 121.691 619.222 117.694V99.1883H610.487V92.1563H616.557C617.692 92.1563 618.556 91.8602 619.148 91.2681C619.74 90.6265 620.036 89.7383 620.036 88.6033V83.2738H627.068L626.994 92.1563H641.798V99.1883H626.994V115.843C626.994 118.212 627.586 119.939 628.771 121.025C630.004 122.11 631.929 122.653 634.544 122.653C636.568 122.653 638.986 122.357 641.798 121.765V128.797C640.417 129.093 638.887 129.34 637.209 129.537C635.581 129.784 634.15 129.907 632.916 129.907ZM648.417 129.167V92.1563H656.19V129.167H648.417ZM651.97 87.3449L647.381 74.0211H657.374L652.711 87.3449H651.97ZM682.775 129.907C679.024 129.907 675.644 129.068 672.634 127.39C669.673 125.713 667.329 123.418 665.602 120.506C663.924 117.595 663.085 114.313 663.085 110.662C663.085 107.01 663.924 103.728 665.602 100.817C667.329 97.9053 669.673 95.6106 672.634 93.9328C675.644 92.255 679.024 91.4161 682.775 91.4161C686.081 91.4161 689.067 92.0576 691.731 93.3406C694.446 94.6237 696.617 96.4249 698.245 98.7442C699.923 101.064 700.959 103.679 701.354 106.59H693.656C693.014 104.123 691.731 102.149 689.807 100.669C687.882 99.1883 685.538 98.4481 682.775 98.4481C680.505 98.4481 678.457 98.9909 676.631 100.077C674.855 101.113 673.448 102.569 672.412 104.444C671.376 106.319 670.857 108.392 670.857 110.662C670.857 112.932 671.376 115.004 672.412 116.879C673.448 118.705 674.855 120.161 676.631 121.247C678.457 122.283 680.505 122.801 682.775 122.801C685.538 122.801 687.882 122.061 689.807 120.58C691.731 119.1 693.014 117.126 693.656 114.659H701.354C700.959 117.57 699.923 120.186 698.245 122.505C696.617 124.824 694.446 126.65 691.731 127.983C689.067 129.266 686.081 129.907 682.775 129.907ZM707.987 129.167V76.6119H715.759V109.921H720.275L733.747 92.1563H742.111L728.195 110.069L742.703 129.167H733.524L720.127 111.402H715.759V129.167H707.987ZM751.449 129.833C749.869 129.833 748.537 129.29 747.451 128.205C746.415 127.119 745.897 125.787 745.897 124.207C745.897 122.628 746.44 121.321 747.525 120.284C748.611 119.199 749.919 118.656 751.449 118.656C753.028 118.656 754.335 119.199 755.372 120.284C756.457 121.321 757 122.628 757 124.207C757 125.787 756.457 127.119 755.372 128.205C754.335 129.29 753.028 129.833 751.449 129.833Z" fill="black"/>
<path d="M387.811 53.6653H395.139V19.6156H387.811V18.1352H404.614V53.6653H411.942V55.1457H387.811V53.6653ZM393.659 1.19243e-07H405.798L400.099 13.916H399.358L393.659 1.19243e-07ZM429.098 55.886C426.039 55.886 423.275 55.0964 420.808 53.5173C418.34 51.8888 416.391 49.6188 414.96 46.7073C413.529 43.7958 412.813 40.4402 412.813 36.6405C412.813 32.8407 413.529 29.4851 414.96 26.5736C416.391 23.6621 418.34 21.4168 420.808 19.8377C423.275 18.2092 426.039 17.395 429.098 17.395C432.207 17.395 434.822 18.1599 436.944 19.6896C439.116 21.2194 440.744 23.44 441.83 26.3515V4.81138H434.946V3.33095H451.378V53.6653H458.262V55.1457H441.83V46.9294C440.744 49.7915 439.116 52.0122 436.944 53.5913C434.822 55.1211 432.207 55.886 429.098 55.886ZM432.059 53.6653C433.984 53.6653 435.711 52.9251 437.24 51.4447C438.82 49.9149 440.053 47.867 440.941 45.3009C441.83 42.6855 442.274 39.7987 442.274 36.6405C442.274 33.4822 441.83 30.6201 440.941 28.054C440.053 25.4386 438.82 23.3907 437.24 21.9103C435.711 20.3805 433.984 19.6156 432.059 19.6156C430.184 19.6156 428.555 20.2078 427.174 21.3921C425.792 22.5764 424.731 24.4516 423.991 27.0177C423.25 29.5344 422.88 32.742 422.88 36.6405C422.88 40.5389 423.25 43.7712 423.991 46.3372C424.731 48.8539 425.792 50.7045 427.174 51.8888C428.555 53.0732 430.184 53.6653 432.059 53.6653ZM492.976 53.5173C491.693 54.0108 489.941 54.4796 487.721 54.9237C486.437 55.2198 485.13 55.4418 483.797 55.5899C482.514 55.7873 481.207 55.886 479.874 55.886C475.926 55.886 472.373 55.0964 469.215 53.5173C466.057 51.8888 463.614 49.6188 461.887 46.7073C460.16 43.7465 459.296 40.3909 459.296 36.6405C459.296 32.9394 460.135 29.6331 461.813 26.7216C463.491 23.7608 465.81 21.4661 468.771 19.8377C471.781 18.2092 475.186 17.395 478.986 17.395C482.884 17.395 486.289 18.2092 489.201 19.8377C492.112 21.4168 494.358 23.6621 495.937 26.5736C497.565 29.4357 498.429 32.7667 498.528 36.5664C498.528 36.6651 498.528 36.7885 498.528 36.9365C498.528 37.0846 498.528 37.2326 498.528 37.3807H469.289C469.339 41.0324 469.783 44.1659 470.622 46.7814C471.51 49.3968 472.694 51.3707 474.175 52.703C475.655 54.0354 477.333 54.7016 479.208 54.7016C480.985 54.7016 482.958 54.0601 485.13 52.7771C487.35 51.494 489.226 49.9396 490.755 48.1137C492.334 46.2385 493.124 44.5607 493.124 43.0803V41.896H494.456V58.3287H492.976V53.5173ZM488.609 35.9003C488.559 32.0512 488.14 28.8436 487.35 26.2775C486.61 23.6621 485.525 21.7375 484.093 20.5039C482.712 19.2208 481.009 18.5793 478.986 18.5793C477.012 18.5793 475.31 19.2702 473.879 20.6519C472.447 21.9843 471.337 23.9582 470.548 26.5736C469.758 29.1397 469.339 32.2485 469.289 35.9003H488.609ZM512.669 55.96C508.919 55.96 506.007 55.0964 503.935 53.3692C501.862 51.6421 500.826 49.3474 500.826 46.4853C500.826 43.1296 502.158 40.6129 504.823 38.9351C507.488 37.2573 511.164 36.221 515.852 35.8262C518.813 35.5795 521.157 35.1847 522.884 34.6419C524.661 34.0497 525.968 33.2355 526.807 32.1992C527.695 31.1629 528.14 29.7812 528.14 28.054C528.14 24.8464 527.523 22.4778 526.289 20.948C525.055 19.3689 523.353 18.5793 521.182 18.5793C519.504 18.5793 517.53 19.2702 515.26 20.6519C513.039 21.9843 511.139 23.6127 509.56 25.5373C507.981 27.4618 507.192 29.2137 507.192 30.7928V32.7914H505.785V14.5081H507.266V19.5416C508.746 19.3935 509.955 19.2702 510.893 19.1715C512.916 18.5793 514.618 18.1352 516 17.8391C517.431 17.543 518.936 17.395 520.515 17.395C525.647 17.395 529.645 18.7767 532.507 21.5402C535.418 24.2543 536.874 28.0293 536.874 32.8654V53.6653H543.092V55.1457H528.065V46.4113C526.931 49.5201 525.031 51.8888 522.366 53.5173C519.75 55.1457 516.518 55.96 512.669 55.96ZM516.962 53.4433C518.887 53.4433 520.688 52.8511 522.366 51.6668C524.093 50.4824 525.475 48.8046 526.511 46.6333C527.547 44.4127 528.065 41.896 528.065 39.0832V32.7173C527.473 33.6056 526.536 34.3705 525.253 35.012C524.019 35.6535 522.44 36.1223 520.515 36.4184C517.012 36.9119 514.421 37.9235 512.743 39.4533C511.115 40.9337 510.3 43.0556 510.3 45.8191C510.3 48.1384 510.917 49.9889 512.151 51.3707C513.434 52.7524 515.038 53.4433 516.962 53.4433ZM543.429 39.9714H544.762V41.97C544.762 43.7465 545.848 45.5723 548.019 47.4475C550.239 49.3227 553.052 50.9019 556.457 52.1849C559.912 53.4186 563.292 54.0354 566.598 54.0354C568.769 54.0354 570.472 53.6406 571.706 52.8511C572.989 52.0122 573.63 50.8772 573.63 49.4461C573.63 48.6072 573.334 47.8423 572.742 47.1515C572.199 46.4606 571.138 45.7944 569.559 45.1529C567.98 44.462 565.735 43.7465 562.823 43.0063C558.036 41.7232 554.261 40.3909 551.498 39.0091C548.784 37.5781 546.81 35.9989 545.576 34.2718C544.392 32.5446 543.8 30.4474 543.8 27.98C543.8 24.6737 545.009 22.083 547.427 20.2078C549.845 18.3326 553.225 17.395 557.568 17.395C559.689 17.395 561.589 17.543 563.267 17.8391C564.945 18.0858 566.647 18.4806 568.375 19.0234C569.46 19.3195 570.719 19.7636 572.15 20.3558V14.2861H573.63V31.9771H572.224V30.2006C572.224 28.6215 571.113 26.993 568.893 25.3152C566.672 23.6374 564.007 22.2557 560.898 21.17C557.839 20.0844 555.224 19.5416 553.052 19.5416C551.276 19.5416 549.869 19.9364 548.833 20.7259C547.797 21.5155 547.279 22.5271 547.279 23.7608C547.279 25.1425 547.821 26.3269 548.907 27.3138C549.993 28.2514 552.016 29.2383 554.977 30.2746C555.717 30.5214 556.482 30.7681 557.271 31.0149C558.11 31.2616 558.974 31.533 559.862 31.8291C560.208 31.9278 560.578 32.0265 560.972 32.1252C561.367 32.2239 561.737 32.3472 562.083 32.4953C566.08 33.729 569.164 34.9626 571.335 36.1963C573.507 37.3807 575.012 38.6637 575.851 40.0454C576.69 41.4272 577.109 43.0803 577.109 45.0048C577.109 48.5579 575.949 51.272 573.63 53.1472C571.36 55.0224 567.98 55.96 563.489 55.96C562.256 55.96 560.849 55.886 559.27 55.7379C557.691 55.6392 556.062 55.4665 554.385 55.2198C549.993 54.6769 546.834 54.1094 544.91 53.5173V58.3287H543.429V39.9714ZM148.891 93.6367H143.413V92.1563H167.322V93.6367H159.105L171.245 122.653L183.31 93.6367H173.762V92.1563H190.342V93.6367H184.939L170.209 129.167H163.769L148.891 93.6367ZM183.654 127.686H190.983V93.6367H183.654V92.1563H200.457V127.686H207.785V129.167H183.654V127.686ZM189.502 74.0211H201.642L195.942 87.9371H195.202L189.502 74.0211ZM208.065 113.993H209.397V115.991C209.397 117.768 210.483 119.593 212.654 121.469C214.875 123.344 217.687 124.923 221.092 126.206C224.547 127.44 227.927 128.057 231.233 128.057C233.405 128.057 235.107 127.662 236.341 126.872C237.624 126.033 238.265 124.898 238.265 123.467C238.265 122.628 237.969 121.863 237.377 121.173C236.834 120.482 235.773 119.816 234.194 119.174C232.615 118.483 230.37 117.768 227.458 117.027C222.671 115.744 218.896 114.412 216.133 113.03C213.419 111.599 211.445 110.02 210.211 108.293C209.027 106.566 208.435 104.468 208.435 102.001C208.435 98.6948 209.644 96.1041 212.062 94.2289C214.48 92.3537 217.86 91.4161 222.203 91.4161C224.325 91.4161 226.225 91.5641 227.902 91.8602C229.58 92.107 231.283 92.5017 233.01 93.0446C234.095 93.3406 235.354 93.7848 236.785 94.3769V88.3072H238.265V105.998H236.859V104.222C236.859 102.643 235.749 101.014 233.528 99.3364C231.307 97.6585 228.643 96.2768 225.534 95.1912C222.474 94.1055 219.859 93.5627 217.687 93.5627C215.911 93.5627 214.504 93.9575 213.468 94.747C212.432 95.5366 211.914 96.5482 211.914 97.7819C211.914 99.1636 212.457 100.348 213.542 101.335C214.628 102.273 216.651 103.259 219.612 104.296C220.352 104.543 221.117 104.789 221.907 105.036C222.746 105.283 223.609 105.554 224.497 105.85C224.843 105.949 225.213 106.048 225.608 106.146C226.002 106.245 226.373 106.368 226.718 106.516C230.715 107.75 233.799 108.984 235.971 110.217C238.142 111.402 239.647 112.685 240.486 114.067C241.325 115.448 241.744 117.101 241.744 119.026C241.744 122.579 240.585 125.293 238.265 127.168C235.995 129.044 232.615 129.981 228.124 129.981C226.891 129.981 225.484 129.907 223.905 129.759C222.326 129.66 220.698 129.488 219.02 129.241C214.628 128.698 211.47 128.131 209.545 127.538V132.35H208.065V113.993ZM261.91 129.907C258.999 129.907 256.532 129.241 254.508 127.909C252.485 126.576 250.931 124.627 249.845 122.061C248.759 119.495 248.217 116.386 248.217 112.734V93.6367H241.703V92.1563H257.765V112.734C257.765 117.62 258.407 121.296 259.69 123.763C260.973 126.181 262.873 127.39 265.389 127.39C267.117 127.39 268.646 126.724 269.979 125.392C271.311 124.059 272.347 122.184 273.088 119.766C273.828 117.348 274.198 114.56 274.198 111.402V93.6367H266.87V92.1563H290.557V93.6367H283.673V127.686H290.557V129.167H274.198V121.099C273.162 123.961 271.583 126.157 269.461 127.686C267.388 129.167 264.871 129.907 261.91 129.907ZM301.79 129.981C298.039 129.981 295.128 129.118 293.055 127.39C290.983 125.663 289.946 123.369 289.946 120.506C289.946 117.151 291.279 114.634 293.944 112.956C296.608 111.278 300.285 110.242 304.973 109.847C307.934 109.601 310.278 109.206 312.005 108.663C313.781 108.071 315.089 107.257 315.928 106.22C316.816 105.184 317.26 103.802 317.26 102.075C317.26 98.8676 316.643 96.4989 315.41 94.9691C314.176 93.39 312.474 92.6004 310.302 92.6004C308.624 92.6004 306.651 93.2913 304.381 94.673C302.16 96.0054 300.26 97.6339 298.681 99.5584C297.102 101.483 296.312 103.235 296.312 104.814V106.812H294.906V88.5293H296.386V93.5627C297.867 93.4147 299.076 93.2913 300.013 93.1926C302.037 92.6004 303.739 92.1563 305.121 91.8602C306.552 91.5641 308.057 91.4161 309.636 91.4161C314.768 91.4161 318.765 92.7978 321.628 95.5613C324.539 98.2754 325.995 102.05 325.995 106.887V127.686H332.213V129.167H317.186V120.432C316.051 123.541 314.151 125.91 311.487 127.538C308.871 129.167 305.639 129.981 301.79 129.981ZM306.083 127.464C308.008 127.464 309.809 126.872 311.487 125.688C313.214 124.504 314.596 122.826 315.632 120.654C316.668 118.434 317.186 115.917 317.186 113.104V106.738C316.594 107.627 315.656 108.392 314.373 109.033C313.14 109.675 311.561 110.143 309.636 110.44C306.132 110.933 303.542 111.945 301.864 113.474C300.235 114.955 299.421 117.077 299.421 119.84C299.421 122.16 300.038 124.01 301.272 125.392C302.555 126.774 304.159 127.464 306.083 127.464ZM330.335 127.686H337.663V78.8325H330.335V77.3521H347.138V127.686H354.688V129.167H330.335V127.686ZM355.179 113.993H356.511V115.991C356.511 117.768 357.597 119.593 359.768 121.469C361.989 123.344 364.802 124.923 368.206 126.206C371.661 127.44 375.041 128.057 378.347 128.057C380.519 128.057 382.221 127.662 383.455 126.872C384.738 126.033 385.379 124.898 385.379 123.467C385.379 122.628 385.083 121.863 384.491 121.173C383.948 120.482 382.887 119.816 381.308 119.174C379.729 118.483 377.484 117.768 374.572 117.027C369.786 115.744 366.011 114.412 363.247 113.03C360.533 111.599 358.559 110.02 357.325 108.293C356.141 106.566 355.549 104.468 355.549 102.001C355.549 98.6948 356.758 96.1041 359.176 94.2289C361.594 92.3537 364.974 91.4161 369.317 91.4161C371.439 91.4161 373.339 91.5641 375.016 91.8602C376.694 92.107 378.397 92.5017 380.124 93.0446C381.21 93.3406 382.468 93.7848 383.899 94.3769V88.3072H385.379V105.998H383.973V104.222C383.973 102.643 382.863 101.014 380.642 99.3364C378.421 97.6585 375.757 96.2768 372.648 95.1912C369.588 94.1055 366.973 93.5627 364.802 93.5627C363.025 93.5627 361.619 93.9575 360.582 94.747C359.546 95.5366 359.028 96.5482 359.028 97.7819C359.028 99.1636 359.571 100.348 360.656 101.335C361.742 102.273 363.765 103.259 366.726 104.296C367.466 104.543 368.231 104.789 369.021 105.036C369.86 105.283 370.723 105.554 371.611 105.85C371.957 105.949 372.327 106.048 372.722 106.146C373.117 106.245 373.487 106.368 373.832 106.516C377.829 107.75 380.913 108.984 383.085 110.217C385.256 111.402 386.761 112.685 387.6 114.067C388.439 115.448 388.858 117.101 388.858 119.026C388.858 122.579 387.699 125.293 385.379 127.168C383.109 129.044 379.729 129.981 375.238 129.981C374.005 129.981 372.598 129.907 371.019 129.759C369.44 129.66 367.812 129.488 366.134 129.241C361.742 128.698 358.584 128.131 356.659 127.538V132.35H355.179V113.993Z" fill="#6B21D9"/>
<path d="M147.78 136.569H388.225V140.27H147.78V136.569Z" fill="#6B21D9"/>
</svg>
